# xmcd
#
# Track frame offsets:
# 150
# 19225
# 38712
#
# Disc length: 838 seconds
#
#
# Revision: 0
# Processed by: cddbd v1.5.1PL0 Copyright (c) Steve Scherf et al.
# Submitted via: FreeRIP 2.941 
#
DISCID=1b034403
DTITLE=Cecil - Red Wine At Dead Time
DYEAR=1900
DGENRE=Rock
TTITLE0=Red Wine At Dead Time (Radio Edit)
TTITLE1=Look Out for My Love
TTITLE2=Friend Underlined
EXTD=CD single
EXTT0=
EXTT1=
EXTT2=
PLAYORDER=
